<?xml version="1.0" standalone="no"?>
<!DOCTYPE svg PUBLIC "-//W3C//DTD SVG 20010904//EN"
 "http://www.w3.org/TR/2001/REC-SVG-20010904/DTD/svg10.dtd">
<svg version="1.0" xmlns="http://www.w3.org/2000/svg"
 width="99.000000pt" height="109.000000pt" viewBox="0 0 99.000000 109.000000"
 preserveAspectRatio="xMidYMid meet">

<g transform="translate(0.000000,109.000000) scale(0.100000,-0.100000)"
fill="#854EF1" stroke="none">
<path d="M473 1052 c6 -28 -23 -92 -40 -92 -4 0 -24 17 -45 37 -21 20 -38 32
-38 26 0 -6 -7 -27 -16 -48 l-15 -37 -32 25 c-17 13 -34 35 -37 48 -3 13 -14
25 -23 27 -26 5 -33 -26 -10 -47 11 -11 27 -51 38 -99 10 -45 26 -88 35 -97
70 -63 357 -61 413 3 8 9 20 40 26 67 26 107 32 125 45 125 17 0 27 23 16 39
-12 20 -44 8 -50 -18 -3 -13 -20 -35 -37 -48 l-32 -25 -15 37 c-9 21 -16 42
-16 48 0 6 -17 -6 -38 -26 -21 -20 -41 -37 -44 -37 -16 0 -46 67 -41 93 5 24
2 27 -22 27 -25 0 -27 -3 -22 -28z"/>
<path d="M224 779 c-11 -6 -50 -60 -86 -121 l-67 -111 26 -33 25 -33 -37 -61
c-37 -60 -37 -61 -19 -83 11 -12 59 -67 109 -122 82 -91 93 -100 123 -98 28 2
32 -1 32 -22 0 -21 12 -30 76 -60 42 -19 82 -35 89 -35 7 0 47 16 89 35 66 30
76 38 76 60 0 24 3 25 33 20 30 -5 36 -1 122 97 143 163 133 139 91 210 l-37
60 26 33 25 34 -66 109 c-77 130 -97 144 -152 107 -53 -35 -130 -48 -241 -43
-72 4 -108 11 -144 28 -26 12 -50 26 -53 31 -6 11 -13 11 -40 -2z m183 -151
c42 -17 82 -31 89 -31 6 0 48 15 93 33 44 19 84 30 88 26 5 -4 -18 -31 -50
-59 -31 -29 -57 -58 -57 -64 0 -18 2 -17 75 27 36 22 69 40 73 40 4 0 18 -20
31 -44 l24 -44 -31 -37 -30 -38 25 -39 26 -38 -19 -36 c-31 -59 -38 -60 -94
-19 -49 36 -50 38 -50 89 l0 53 50 23 c28 13 50 25 50 26 0 13 -15 34 -24 34
-6 0 -32 -14 -58 -30 -48 -30 -48 -30 -48 -85 0 -51 -2 -56 -27 -66 -18 -7
-44 -8 -73 -2 l-45 8 -5 59 c-5 58 -6 59 -57 92 -50 32 -53 33 -63 14 -14 -26
-16 -24 40 -50 l51 -24 -3 -55 c-3 -53 -5 -56 -51 -89 -53 -38 -60 -36 -91 22
l-19 36 26 40 27 39 -31 35 c-33 39 -33 54 4 99 l22 28 70 -40 c89 -52 99 -36
21 33 -85 76 -76 83 41 34z m43 -318 c36 -19 40 -24 40 -60 0 -21 -3 -41 -7
-43 -5 -3 -33 -8 -63 -11 -54 -7 -56 -6 -79 25 l-23 31 38 39 c21 21 42 39 46
39 5 0 27 -9 48 -20z m184 -19 l38 -39 -22 -32 c-22 -30 -24 -31 -79 -24 -31
3 -59 8 -63 11 -5 2 -8 22 -8 43 0 35 4 42 38 59 20 11 42 20 47 21 6 0 28
-18 49 -39z m-184 -111 c0 -6 11 -16 25 -22 22 -10 30 -8 55 10 36 27 62 19
58 -16 -2 -20 -12 -28 -47 -40 -38 -13 -50 -13 -90 0 -35 11 -47 19 -49 37 -4
24 11 41 36 41 6 0 12 -5 12 -10z"/>
</g>
</svg>
